<svg width="461" height="584" viewBox="0 0 461 584" fill="none" xmlns="http://www.w3.org/2000/svg">
<path d="M2.55482 138.001C1.45066 137.971 0.531026 138.841 0.500751 139.945C0.470477 141.049 1.34103 141.969 2.44518 141.999L2.55482 138.001ZM440.5 26.0644L441.018 24.1326L440.5 26.0644ZM455 203.563L456.828 202.751L455 203.563ZM413 421.562L411.059 421.08L413 421.562ZM234.586 583.414C235.367 584.195 236.633 584.195 237.414 583.414L250.142 570.686C250.923 569.905 250.923 568.639 250.142 567.858C249.361 567.077 248.095 567.077 247.314 567.858L236 579.172L224.686 567.858C223.905 567.077 222.639 567.077 221.858 567.858C221.077 568.639 221.077 569.905 221.858 570.686L234.586 583.414ZM2.44518 141.999C80.1371 144.13 125.02 132.244 153.971 114.408C182.914 96.5764 195.7 72.8918 209.29 52.4515C216.107 42.1988 223.11 32.7657 232.439 25.0249C241.739 17.3085 253.427 11.213 269.679 7.78402C302.299 0.901096 353.284 4.75977 439.982 27.9962L441.018 24.1326C354.216 0.868248 302.451 -3.21903 268.853 3.8702C251.995 7.42727 239.706 13.7974 229.885 21.9466C220.093 30.0713 212.83 39.9036 205.96 50.2368C192.175 70.9681 179.898 93.7364 151.873 111.002C123.855 128.264 79.8629 140.121 2.55482 138.001L2.44518 141.999ZM439.982 27.9962C440.381 28.1032 440.518 28.2246 440.55 28.2572C440.563 28.2712 440.604 28.3075 440.625 28.4712C440.683 28.9306 440.515 29.903 439.68 31.5667C438.055 34.8014 434.581 39.3692 429.65 45.0851C419.817 56.4839 404.864 71.6994 389.16 88.782C373.521 105.794 357.237 124.557 345.004 142.802C332.829 160.961 324.406 178.98 325.024 194.431L329.021 194.271C328.457 180.186 336.214 163.095 348.327 145.029C360.382 127.049 376.494 108.471 392.105 91.489C407.652 74.5768 422.805 59.143 432.679 47.698C437.601 41.992 441.382 37.0894 443.254 33.3624C444.167 31.5454 444.809 29.6643 444.593 27.967C444.477 27.0524 444.11 26.1847 443.426 25.4775C442.761 24.789 441.912 24.3722 441.018 24.1326L439.982 27.9962ZM325.024 194.431C325.653 210.153 336.36 222.603 350.961 231.384C365.591 240.182 384.475 245.532 402.337 246.993C420.133 248.45 437.317 246.076 448.344 238.991C453.91 235.416 457.984 230.585 459.647 224.401C461.305 218.234 460.49 211.003 456.828 202.751L453.172 204.374C456.578 212.05 457.139 218.323 455.784 223.362C454.433 228.385 451.105 232.463 446.182 235.626C436.234 242.017 420.099 244.434 402.663 243.007C385.291 241.585 367.028 236.378 353.023 227.956C338.989 219.517 329.574 208.084 329.021 194.271L325.024 194.431ZM456.828 202.751C449.923 187.19 440.91 178.817 430.849 177.369C420.812 175.924 410.658 181.507 401.776 191.662C383.979 212.009 369.929 252.121 369.929 300.678H373.929C373.929 252.716 387.837 213.674 404.787 194.295C413.279 184.587 422.195 180.164 430.279 181.328C438.34 182.488 446.5 189.339 453.172 204.374L456.828 202.751ZM369.929 300.678C369.929 320.408 373.276 335.007 378.165 346.553C383.049 358.089 389.434 366.48 395.336 373.783C401.294 381.154 406.571 387.218 409.733 394.383C412.832 401.405 413.915 409.573 411.059 421.08L414.941 422.044C417.987 409.772 416.888 400.687 413.393 392.768C409.961 384.992 404.233 378.427 398.447 371.269C392.606 364.042 386.509 356.002 381.848 344.993C377.191 333.994 373.929 319.934 373.929 300.678H369.929ZM411.059 421.08C406.912 437.786 394.387 447.174 377.217 454.055C368.629 457.496 358.982 460.268 348.786 463.011C338.625 465.745 327.908 468.454 317.342 471.746C296.209 478.333 275.318 487.36 259.732 504.1C244.09 520.899 234 545.233 234 582H238C238 546.017 247.847 522.734 262.659 506.826C277.526 490.859 297.603 482.088 318.533 475.565C328.999 472.303 339.585 469.629 349.825 466.874C360.03 464.128 369.878 461.305 378.705 457.768C396.363 450.691 410.338 440.587 414.941 422.044L411.059 421.08Z" fill="black"/>
</svg>
