<svg width="551" height="602" viewBox="0 0 551 602" fill="none" xmlns="http://www.w3.org/2000/svg">
<path d="M197.156 1.99995C197.156 0.895385 196.26 -2.5034e-05 195.156 0C194.051 2.51532e-05 193.156 0.895476 193.156 2.00005L197.156 1.99995ZM539.961 354.275L538.666 355.798L539.961 354.275ZM193.742 601.414C194.523 602.195 195.789 602.195 196.57 601.414L209.298 588.686C210.079 587.905 210.079 586.639 209.298 585.858C208.517 585.077 207.251 585.077 206.47 585.858L195.156 597.172L183.842 585.858C183.061 585.077 181.795 585.077 181.014 585.858C180.233 586.639 180.233 587.905 181.014 588.686L193.742 601.414ZM193.156 2.00005C193.157 32.089 180.358 53.5621 161.293 70.311C142.14 87.136 116.714 99.1483 91.5635 110.177C66.5606 121.141 41.704 131.175 24.313 144.012C15.5806 150.458 8.58721 157.706 4.37841 166.277C0.14943 174.889 -1.19766 184.694 1.13815 196.091L5.05669 195.288C2.88516 184.693 4.15946 175.798 7.96886 168.04C11.7984 160.242 18.2604 153.452 26.6885 147.231C43.6187 134.734 67.9042 124.919 93.1699 113.84C118.288 102.826 144.257 90.6009 163.933 73.3161C183.695 55.9551 197.157 33.4455 197.156 1.99995L193.156 2.00005ZM1.13815 196.091C3.52317 207.727 12.0564 218.943 24.3202 229.666C36.6233 240.425 52.9217 250.896 71.2677 260.996C107.953 281.192 153.189 300.095 191.79 316.926C211.12 325.354 228.777 333.259 242.934 340.563C257.174 347.91 267.582 354.511 272.668 360.265C275.208 363.139 276.126 365.472 275.961 367.348C275.803 369.155 274.574 371.187 271.209 373.334C267.849 375.478 262.653 377.533 255.259 379.426C247.891 381.314 238.458 383.012 226.705 384.503L227.209 388.472C239.057 386.969 248.666 385.244 256.251 383.301C263.81 381.365 269.478 379.183 273.361 376.706C277.239 374.232 279.633 371.259 279.946 367.698C280.252 364.206 278.489 360.811 275.665 357.616C270.022 351.232 258.97 344.336 244.768 337.008C230.482 329.637 212.716 321.687 193.389 313.26C154.679 296.381 109.676 277.574 73.1968 257.491C54.9605 247.452 38.9451 237.141 26.9533 226.655C14.922 216.135 7.17903 205.643 5.05669 195.288L1.13815 196.091ZM226.705 384.503C203.143 387.493 187.971 386.823 179.603 383.925C175.44 382.483 173.288 380.606 172.398 378.686C171.528 376.811 171.634 374.391 173.148 371.3C176.232 365.004 184.605 357.125 197.489 348.869C210.28 340.673 227.23 332.285 247.064 324.865C326.563 295.122 451.102 281.34 538.666 355.798L541.257 352.751C452.036 276.884 325.671 291.185 245.663 321.118C225.62 328.617 208.406 337.123 195.331 345.501C182.349 353.819 173.154 362.195 169.556 369.54C167.729 373.27 167.215 377.017 168.769 380.369C170.303 383.677 173.619 386.086 178.294 387.705C187.598 390.927 203.57 391.471 227.209 388.472L226.705 384.503ZM538.666 355.798C543.244 359.692 545.689 363.091 546.588 366.036C547.448 368.851 546.961 371.462 545.127 374.101C543.231 376.829 539.895 379.569 535.108 382.333C530.348 385.082 524.302 387.771 517.155 390.462C502.855 395.847 484.378 401.154 463.427 406.952C442.507 412.741 419.155 419.01 395.22 426.297C347.375 440.864 296.951 459.572 258.465 486.92C219.927 514.305 193.156 550.512 193.156 600H197.156C197.156 552.23 222.9 517.099 260.782 490.181C298.714 463.227 348.614 444.668 396.385 430.124C420.257 422.856 443.536 416.607 464.494 410.807C485.421 405.016 504.069 399.664 518.564 394.206C525.814 391.476 532.084 388.699 537.109 385.797C542.108 382.91 546.028 379.814 548.412 376.384C550.857 372.865 551.674 368.995 550.414 364.867C549.193 360.869 546.093 356.863 541.257 352.751L538.666 355.798Z" fill="black"/>
</svg>
