<svg width="93" height="93" viewBox="0 0 93 93" fill="none" xmlns="http://www.w3.org/2000/svg">
<path d="M46.5 91C71.0767 91 91 81.0383 91 68.75C91 56.4617 71.0767 46.5 46.5 46.5C21.9233 46.5 2 56.4617 2 68.75C2 81.0383 21.9233 91 46.5 91Z" stroke="#FCC344" stroke-width="4" stroke-miterlimit="10"/>
<path d="M46.5 68.75C71.0767 68.75 91 58.7883 91 46.5C91 34.2117 71.0767 24.25 46.5 24.25C21.9233 24.25 2 34.2117 2 46.5C2 58.7883 21.9233 68.75 46.5 68.75Z" stroke="#FCC344" stroke-width="4" stroke-miterlimit="10"/>
<path d="M46.5 46.5C71.0767 46.5 91 36.5383 91 24.25C91 11.9617 71.0767 2 46.5 2C21.9233 2 2 11.9617 2 24.25C2 36.5383 21.9233 46.5 46.5 46.5Z" stroke="#FCC344" stroke-width="4" stroke-miterlimit="10"/>
</svg>
