<svg width="93" height="93" viewBox="0 0 93 93" fill="none" xmlns="http://www.w3.org/2000/svg">
<path d="M46.5 90.9508C71.0767 90.9508 91 71.0385 91 46.4754C91 21.9123 71.0767 2 46.5 2C21.9233 2 2 21.9123 2 46.4754C2 71.0385 21.9233 90.9508 46.5 90.9508Z" stroke="#FCC344" stroke-width="4" stroke-miterlimit="10"/>
<path d="M46.5 68.7132C58.7883 68.7132 68.75 58.757 68.75 46.4755C68.75 34.1939 58.7883 24.2378 46.5 24.2378C34.2117 24.2378 24.25 34.1939 24.25 46.4755C24.25 58.757 34.2117 68.7132 46.5 68.7132Z" stroke="#FCC344" stroke-width="4" stroke-miterlimit="10"/>
<path d="M46.5003 24.2378H7.93359" stroke="#FCC344" stroke-width="4" stroke-miterlimit="10"/>
<path d="M46.5 68.7131H85.0667" stroke="#FCC344" stroke-width="4" stroke-miterlimit="10"/>
<path d="M68.75 46.4754V7.97949" stroke="#FCC344" stroke-width="4" stroke-miterlimit="10"/>
<path d="M24.25 46.4753V85.0207" stroke="#FCC344" stroke-width="4" stroke-miterlimit="10"/>
<path d="M35.375 27.2522L2 46.4754" stroke="#FCC344" stroke-width="4" stroke-miterlimit="10"/>
<path d="M57.625 65.748L91 46.4753" stroke="#FCC344" stroke-width="4" stroke-miterlimit="10"/>
<path d="M65.7833 35.3565L46.5 2" stroke="#FCC344" stroke-width="4" stroke-miterlimit="10"/>
<path d="M27.2168 57.5942L46.5001 91" stroke="#FCC344" stroke-width="4" stroke-miterlimit="10"/>
<path d="M27.2163 35.3564L7.98242 68.7622" stroke="#FCC344" stroke-width="4" stroke-miterlimit="10"/>
<path d="M65.7832 57.5943L85.0665 24.2378" stroke="#FCC344" stroke-width="4" stroke-miterlimit="10"/>
<path d="M57.625 27.2522L24.25 7.97949" stroke="#FCC344" stroke-width="4" stroke-miterlimit="10"/>
<path d="M35.375 65.748L68.75 85.0207" stroke="#FCC344" stroke-width="4" stroke-miterlimit="10"/>
</svg>
