<svg width="93" height="93" viewBox="0 0 93 93" fill="none" xmlns="http://www.w3.org/2000/svg">
<path d="M86.0475 46.5105H46.5C48.7245 42.802 51.6906 38.995 55.2004 35.4348C67.4107 23.2216 82.241 18.2768 88.3709 24.3587C92.7211 28.71 91.4853 37.4124 86.0475 46.5105Z" stroke="#FCC344" stroke-width="4" stroke-miterlimit="10"/>
<path d="M6.95251 46.5103H46.5C44.2755 50.2187 41.3094 54.0263 37.7996 57.5864C25.5893 69.7996 10.759 74.7445 4.62912 68.6626C0.278897 64.2619 1.51473 55.5589 6.95251 46.5103Z" stroke="#FCC344" stroke-width="4" stroke-miterlimit="10"/>
<path d="M46.4998 6.95348V46.5105C42.7923 44.2854 38.9858 41.3188 35.4265 37.8082C23.2162 25.5949 18.2728 10.7612 24.3532 4.62989C28.7034 0.278615 37.4533 1.51439 46.4998 6.95348Z" stroke="#FCC344" stroke-width="4" stroke-miterlimit="10"/>
<path d="M46.5 86.0673V46.5103C50.2076 48.7353 54.014 51.7024 57.5733 55.2131C69.7836 67.4263 74.7271 82.26 68.6466 88.3914C64.2964 92.6932 55.5465 91.5064 46.5 86.0673Z" stroke="#FCC344" stroke-width="4" stroke-miterlimit="10"/>
</svg>
