<svg width="243" height="211" viewBox="0 0 243 211" fill="none" xmlns="http://www.w3.org/2000/svg">
<path fill-rule="evenodd" clip-rule="evenodd" d="M143.677 199.381L140.221 190.025C144.335 188.796 151.41 186.146 154.578 184.383L152.464 191.191L159.629 193.532C155.295 195.672 150.041 197.667 143.678 199.381H143.677ZM122.366 208.203C114.084 208.203 104.632 206.27 101.844 205.261L106.075 193.646C109.586 194.688 116.89 195.79 122.188 195.756H122.524C127.822 195.79 135.116 194.688 138.644 193.646L142.867 205.261C140.083 206.27 130.63 208.202 122.366 208.202V208.203ZM85.0825 193.532L92.2559 191.191L90.1344 184.383C93.2986 186.146 100.384 188.796 104.491 190.025L101.029 199.381C94.6871 197.667 89.4108 195.672 85.0825 193.532ZM160.085 191.468L155.729 189.802L156.933 185.308L158.257 180.413C158.257 180.413 150.536 184.594 139.653 187.731C136.568 188.611 134.232 189.015 134.232 189.015V192.348C134.232 192.348 128.409 193.357 122.531 193.357H122.193C116.308 193.357 110.497 192.348 110.497 192.348V189.015C110.497 189.015 108.153 188.611 105.073 187.73C94.1926 184.594 86.4781 180.413 86.4781 180.413L87.7843 185.308L89.0117 189.802L84.6396 191.468L79.7891 193.276C85.346 195.952 93.0463 199.847 100.094 201.771L98.4315 206.303C98.4315 206.303 107.371 210.363 122.257 210.401V210.408H122.462V210.401C137.367 210.363 146.297 206.304 146.297 206.304L144.629 201.771C151.678 199.847 159.39 195.952 164.923 193.276L160.085 191.468ZM101.987 13.159L103.985 13.3585L104.851 11.6189L107.372 6.47528L112.054 8.78449L113.866 9.66673L115.311 8.3037L120.36 3.52836L125.424 8.3037L126.873 9.66673L128.685 8.78449L133.341 6.47528L135.899 11.6189L136.744 13.3585L138.749 13.159L140.662 12.9387C139.888 14.6089 139.225 16.3281 138.677 18.0853C133.625 15.4019 127.061 13.8737 120.36 13.8737C113.693 13.8737 107.134 15.4019 102.063 18.0853C101.597 16.6074 100.955 14.8198 100.08 12.9387L101.987 13.159ZM120.583 16.6844C129.576 16.6844 136.769 19.4981 140.742 22.4965C140.742 22.4965 141.924 15.785 145.955 9.86627L138.713 10.6419L134.922 3.04343L127.645 6.586L120.584 0L113.544 6.586L106.251 3.04343L102.467 10.6425L95.2271 9.86627C99.2611 15.785 100.435 22.4959 100.435 22.4959C104.438 19.4981 111.606 16.6844 120.583 16.6844H120.583ZM234.425 129.309C234.425 129.309 231.344 134.504 224.267 134.504H224.181C215.686 134.458 212.264 129.44 212.264 129.44C212.264 129.44 212.755 135.967 209.697 144.778C206.011 155.397 209.73 162.985 209.73 162.985C209.73 162.985 207.745 163.504 205.462 163.504C204.588 163.504 203.676 163.42 202.816 163.203C195.725 161.57 193.956 155.317 193.956 155.317C193.956 155.317 194.607 176.443 169.178 176.443H168.98C168.98 176.443 171.22 173.491 171.881 164.995C173.089 149.319 184.045 147.166 184.045 147.166C184.045 147.166 178.198 146.455 175.664 144.256C171.7 140.775 171.982 136.756 171.982 136.756C180.929 136.634 186.79 133.685 191.256 128.679C196.095 123.259 196.889 117.42 196.889 117.42C196.889 117.42 192.077 121.646 182.777 121.646C181.957 121.646 181.083 121.607 180.185 121.522C175.783 121.176 172.743 118.466 172.743 118.466C182.428 112.451 189.22 101.955 183.195 86.1509C178.369 73.484 166.772 64.0215 155.094 56.8967C151.209 54.5478 149.043 51.9301 149.043 49.6849C149.043 44.3914 156.816 44.2209 159.999 40.6665C163.678 36.5324 161.371 29.8333 158.184 25.7957C158.184 25.7957 159.257 25.5837 160.951 25.5837C164.312 25.5837 170.128 26.4009 174.906 31.204C181.254 37.5632 178.623 44.4944 178.623 44.4944L180.323 44.8166C181.34 45.0238 182.354 45.0605 183.404 45.1132C183.629 45.1132 183.862 45.125 184.085 45.125C193.31 45.125 197.43 35.7875 197.43 35.7875C197.43 35.7875 207.234 47.4668 192.799 56.6232C190.317 58.1875 189.22 59.6411 189.507 61.1871L189.733 62.202L190.759 62.3796C201.221 65.1282 206.516 72.1198 212.981 80.0682C222.802 92.1549 236.688 92.5463 238.403 92.5463H238.588C238.588 92.5463 235.42 102.238 226.079 102.238C225.922 102.238 225.789 102.238 225.635 102.229C221.346 102.08 219.142 100.49 219.142 100.49C219.142 100.49 217.472 122.49 234.424 129.309H234.425ZM226.237 104.975C237.716 104.975 241.559 93.7032 241.716 93.2207L242.999 89.2476L238.695 89.3785H238.678C237.164 89.3785 224.495 89.0522 215.515 78.0355L214.667 77.0129C208.797 69.8129 203.236 62.9581 193.285 59.8347C193.572 59.5819 193.985 59.2764 194.551 58.9199C199.831 55.5722 202.9 51.4973 203.671 46.7729C204.802 39.6629 200.1 33.9911 199.893 33.759L196.698 29.944L194.699 34.4713C194.568 34.7543 191.211 41.9999 184.143 41.9999H183.619C183.136 41.9744 182.669 41.9561 182.219 41.9194C182.467 38.6883 181.858 33.6879 177.156 28.9931C171.504 23.3444 164.574 22.4965 160.953 22.4965C159.018 22.4965 157.732 22.7286 157.59 22.7422L152.761 23.6659L155.74 27.4554C158.077 30.3786 160.194 35.7674 157.682 38.5823C156.878 39.4787 155.225 40.2029 153.647 40.9359C150.398 42.3765 145.956 44.3938 145.956 49.5167C145.956 52.8301 148.621 56.2981 153.45 59.2444C167.743 67.9217 176.561 76.978 180.372 86.9728C186.266 102.349 178.574 111.116 171.111 115.741L167.76 117.819L170.692 120.419C171.088 120.754 174.671 123.803 179.969 124.242C180.974 124.304 181.931 124.357 182.831 124.357C186.224 124.357 189.119 123.842 191.468 123.148C190.764 124.336 189.946 125.452 189.026 126.48C184.76 131.251 179.508 133.425 171.959 133.54L169.152 133.586L168.938 136.302C168.912 136.849 168.702 141.886 173.639 146.17C174.394 146.834 175.306 147.379 176.268 147.822C172.916 150.736 169.512 155.803 168.855 164.488C168.297 171.738 166.507 174.42 166.484 174.447L163.386 179.018L168.988 179.089C178.248 179.089 185.336 176.626 190.249 171.738C193.153 168.847 194.813 165.581 195.793 162.693C197.405 164.016 199.483 165.179 202.198 165.798C203.226 166.03 204.349 166.156 205.571 166.156C208.184 166.156 210.377 165.621 210.62 165.565L214.196 164.646L212.615 161.424C212.501 161.167 209.515 154.696 212.727 145.469C214.108 141.475 214.817 137.904 215.16 135.121C217.412 136.252 220.43 137.189 224.33 137.201C233.186 137.201 237.093 130.812 237.266 130.545L239.011 127.613L235.778 126.327C225.223 122.096 222.888 110.734 222.419 104.587C223.371 104.766 224.461 104.93 225.692 104.962L226.237 104.975H226.237Z" fill="#E8E8E8"/>
<path fill-rule="evenodd" clip-rule="evenodd" d="M213.395 57.3443C215.483 57.3443 217.919 58.0347 220.224 60.3422C227.454 67.4593 234.177 67.856 234.177 67.856C232.956 70.482 229.413 72.7829 225.745 72.7829C224.88 72.7866 224.02 72.6485 223.2 72.3744C218.226 70.7461 216.446 63.5141 207.711 59.007C207.711 59.007 210.147 57.3443 213.395 57.3443ZM206.26 61.373C210.431 63.5283 212.865 66.419 214.997 68.9792C217.092 71.4815 219.076 73.8866 222.19 74.8873C223.294 75.2544 224.468 75.4296 225.665 75.4296C230.331 75.4296 235.021 72.658 236.8 68.8217L238.588 64.9772L234.262 64.7297C234.057 64.7249 228.488 64.2299 222.296 58.0945C219.749 55.5775 216.665 54.2565 213.348 54.2565C209.29 54.2565 206.285 56.2181 205.953 56.4236L201.977 59.139L206.26 61.373ZM206.945 100.742V100.893C204.355 80.925 189.172 66.5042 172.273 57.7399C170.711 56.9375 169.265 56.2608 167.867 55.6112C173.007 56.375 181.295 56.4639 187.69 51.1687C187.69 51.1687 177.907 58.0442 157.866 51.7998C163.409 55.2364 174.191 60.0881 184.037 67.9448C208.638 88.5892 191.037 108.726 191.037 108.726C199.877 99.9138 200.246 90.4757 197.643 82.7682C202.3 90.1666 205.276 99.1459 204.812 110.226C204.135 126.094 195.002 139.818 185.391 150.843C180.772 156.193 179.741 162.769 179.741 162.769C179.741 162.769 181.606 156.966 186.95 150.996C197.248 139.481 206.057 127.523 207.211 110.29C208.274 113.418 212.663 122.108 219.621 125.385C219.621 125.385 210.874 120.353 206.945 100.742ZM74.221 176.444C48.7877 176.444 49.4384 155.317 49.4384 155.317C49.4384 155.317 47.6644 161.572 40.5775 163.204C39.7296 163.42 38.8225 163.505 37.9343 163.505C35.6518 163.505 33.6783 162.985 33.6783 162.985C33.6783 162.985 37.376 155.398 33.6901 144.778C30.6431 135.969 31.1375 129.44 31.1375 129.44C31.1375 129.44 27.7175 134.458 19.2172 134.506H19.132C12.0622 134.506 8.97676 129.309 8.97676 129.309C25.9193 122.49 24.2614 100.489 24.2614 100.489C24.2614 100.489 22.057 102.079 17.7613 102.229C17.6044 102.238 17.464 102.238 17.3148 102.238C7.969 102.238 4.80123 92.5451 4.80123 92.5451H4.9907C6.71729 92.5451 20.5921 92.1543 30.4051 80.067C36.8697 72.1186 42.1732 65.1293 52.618 62.3778L53.6678 62.2002L53.891 61.1859C54.1812 59.6405 53.0881 58.1863 50.6066 56.622C36.171 47.4656 45.9728 35.7875 45.9728 35.7875C45.9728 35.7875 50.0743 45.1232 59.32 45.1232C59.5433 45.1232 59.757 45.1167 59.995 45.1167C61.0324 45.0593 62.0585 45.022 63.0752 44.8148L64.7728 44.4932C64.7728 44.4932 62.132 37.5615 68.4947 31.2028C73.2778 26.4008 79.0893 25.5843 82.4471 25.5843C84.15 25.5843 85.2069 25.7939 85.2069 25.7939C82.0273 29.8315 79.7211 36.5306 83.3998 40.6647C86.5818 44.2191 94.3455 44.3896 94.3455 49.6831C94.3455 51.9289 92.182 54.5466 88.3013 56.8955C76.6167 64.0227 65.025 73.4828 60.1987 86.1497C54.1806 101.957 60.9732 112.45 70.6701 118.466C70.6701 118.466 67.6208 121.176 63.2102 121.522C62.3466 121.604 61.4796 121.645 60.612 121.646C51.3219 121.646 46.5098 117.419 46.5098 117.419C46.5098 117.419 47.3103 123.261 52.1194 128.681C56.6153 133.685 62.4695 136.634 71.4162 136.756C71.4162 136.756 71.7004 140.775 67.7439 144.256C65.205 146.455 59.3508 147.166 59.3508 147.166C59.3508 147.166 70.3184 149.319 71.5246 164.996C72.1782 173.492 74.4034 176.444 74.4034 176.444H74.2204H74.221ZM76.9139 174.448C76.9068 174.42 75.1257 171.739 74.5573 164.491C73.8906 155.804 70.4895 150.737 67.1311 147.823C68.0998 147.379 68.9992 146.834 69.7589 146.171C74.6929 141.889 74.4839 136.849 74.4484 136.303L74.2577 133.586L71.4322 133.541C63.9083 133.426 58.6474 131.252 54.3795 126.481C53.4645 125.449 52.6478 124.333 51.94 123.149C54.2871 123.843 57.1624 124.36 60.5658 124.36C61.4777 124.36 62.4274 124.304 63.4299 124.243C68.728 123.804 72.315 120.757 72.7153 120.418L75.6474 117.819L72.2984 115.742C64.8101 111.118 57.1506 102.349 63.0343 86.9751C66.8428 76.9786 75.6474 67.9247 89.9604 59.2468C94.7896 56.2987 97.434 52.8307 97.434 49.5173C97.434 44.395 93.005 42.3771 89.7531 40.9365C88.1699 40.2058 86.5232 39.4799 85.7185 38.5828C83.2021 35.768 85.3236 30.3792 87.6583 27.4583L90.6549 23.6665L85.8067 22.7428C85.6635 22.7292 84.3928 22.4971 82.4501 22.4971C78.8252 22.4971 71.913 23.345 66.2666 28.9937C61.5588 33.6908 60.9424 38.6912 61.1828 41.9223C60.7281 41.9567 60.271 41.975 59.7878 42.0005H59.2715C52.1875 42.0005 48.8409 34.7566 48.7101 34.4718L46.7206 29.9446L43.4948 33.7619C43.3136 33.9916 38.601 39.6634 39.7456 46.7734C40.5076 51.4985 43.5824 55.5722 48.8623 58.9235C49.436 59.277 49.8357 59.5825 50.1234 59.8353C40.1624 62.9587 34.6043 69.8135 28.7395 77.0135L27.8922 78.0361C18.9259 89.0528 6.23413 89.3791 4.71537 89.3791L0.390625 89.2482L1.70688 93.2213C1.85905 93.7038 5.68643 104.976 17.1715 104.976L17.7257 104.962C18.9425 104.93 20.0302 104.767 21.0013 104.587C20.5252 110.735 18.1828 122.096 7.62676 126.327L4.40333 127.614L6.14827 130.546C6.31524 130.813 10.2326 137.202 19.1042 137.202C22.9819 137.19 25.9951 136.252 28.2516 135.123C28.5944 137.905 29.3014 141.476 30.6864 145.47C33.8974 154.696 30.9078 161.168 30.7935 161.427L29.2061 164.647L32.7931 165.566C33.0287 165.621 35.2326 166.156 37.8366 166.156C39.0558 166.156 40.1838 166.032 41.2028 165.798C43.9188 165.182 46.0178 164.017 47.6153 162.694C48.5887 165.582 50.2549 168.847 53.1491 171.739C58.0766 176.627 65.1576 179.09 74.4099 179.09L80.0171 179.019L76.9139 174.448V174.448Z" fill="#E8E8E8"/>
<path fill-rule="evenodd" clip-rule="evenodd" d="M21.8338 60.3411C24.1436 58.0337 26.5801 57.3433 28.6809 57.3433C31.9103 57.3433 34.3557 59.0059 34.3557 59.0059C25.628 63.5154 23.8298 70.7474 18.8437 72.3757C18.0201 72.6599 17.1662 72.7818 16.3142 72.7818C12.6497 72.7818 9.09938 70.4833 7.88912 67.8555C7.88912 67.8555 14.6089 67.4588 21.8332 60.3417L21.8338 60.3411ZM16.3858 75.4286C17.586 75.4286 18.7578 75.2557 19.8651 74.8886C22.9867 73.8849 24.9708 71.4822 27.0663 68.9776C29.2109 66.4197 31.6172 63.526 35.7921 61.3702L40.0902 59.1379L36.1006 56.4202C35.7667 56.2153 32.773 54.2554 28.7212 54.2554C25.3906 54.2554 22.3063 55.574 19.7585 58.094C13.5591 64.23 8.00399 64.7227 7.80208 64.7298L3.47852 64.9749L5.25365 68.8224C7.04063 72.6563 11.726 75.4286 16.3864 75.4286H16.3858ZM40.3496 110.225C39.8682 99.1489 42.8477 90.1697 47.5099 82.7659C44.9118 90.474 45.2635 99.9128 54.1196 108.727C54.1196 108.727 36.511 88.5875 61.129 67.942C70.971 60.0853 81.745 55.233 87.2883 51.7964C67.252 58.039 57.4674 51.1676 57.4674 51.1676C63.861 56.4634 72.1469 56.374 77.2858 55.6084C75.8997 56.2579 74.436 56.9347 72.8864 57.737C55.9806 66.502 40.8031 80.9257 38.1996 100.894V100.743C34.2752 120.352 25.5345 125.385 25.5345 125.385C32.4888 122.108 36.8662 113.417 37.9314 110.286C39.0955 127.523 47.9031 139.481 58.2028 150.997C63.5454 156.967 65.43 162.768 65.43 162.768C65.43 162.768 64.3862 156.194 59.7429 150.843C50.1495 139.82 41.0204 126.093 40.3502 110.225H40.3496ZM115.217 69.8332V73.5048C116.629 71.9641 119.35 72.2797 119.35 72.2797V77.5714C119.35 77.5714 119.255 80.1767 118.224 81.3017H124.118C123.102 80.1767 123 77.5714 123 77.5714V72.2797C123 72.2797 125.728 71.9641 127.127 73.5054V69.8332H115.218H115.217ZM112.282 48.0851C114.207 49.6471 115.313 49.9058 115.349 49.9307L116.1 50.2859V46.2685L109.042 43.228C109.042 43.228 109.102 45.5568 112.282 48.0851ZM128.441 48.0851C131.629 45.5568 131.69 43.228 131.69 43.228L124.632 46.2685V50.2853L125.377 49.9307C125.416 49.9058 126.522 49.6471 128.441 48.0851Z" fill="#E8E8E8"/>
<path fill-rule="evenodd" clip-rule="evenodd" d="M119.928 35.7289L103.168 29.3786C104.595 26.1404 111.167 23.3894 119.928 23.3782C128.703 23.3894 135.273 26.1404 136.692 29.3786L119.928 35.7289ZM132.63 56.0216L121.253 61.7544V38.5367L136.692 33.5227L132.631 56.021L132.63 56.0216ZM139.87 62.4839L145.027 65.3775H145.1L146.397 66.1064C143.484 66.8862 141.261 68.2942 139.39 70.1398C139.321 70.1972 139.262 70.2659 139.186 70.3352C138.749 70.788 138.328 71.2566 137.926 71.7403C137.849 71.835 137.769 71.9309 137.686 72.0387C137.287 72.5348 136.908 73.0464 136.549 73.5722C136.49 73.6646 136.421 73.754 136.359 73.8434C135.923 74.4805 135.508 75.132 135.116 75.7968C131.441 81.9097 125.581 85.5648 120.369 85.5742C115.161 85.5648 109.299 81.9097 105.632 75.7968C105.241 75.1435 104.832 74.5013 104.405 73.8707C104.322 73.754 104.243 73.632 104.167 73.5332C103.816 73.0323 103.452 72.5407 103.076 72.0588C102.983 71.9309 102.895 71.8344 102.803 71.7219C102.41 71.2508 102.003 70.7927 101.581 70.3482C101.49 70.2819 101.433 70.1972 101.357 70.1286C99.4774 68.2782 97.2605 66.8862 94.3456 66.1064L95.6541 65.3775H95.7134L100.88 62.4839L106.18 59.5488L120.343 66.9963L120.369 66.9667L120.409 66.9963L134.569 59.5488L139.87 62.4839ZM160.071 83.3686C158.91 86.3351 157.952 89.5455 157.952 92.7381L157.962 113.358C153.517 112.635 152.992 107.997 152.975 107.795L152.892 106.85L151.936 106.77C150.003 106.588 148.721 105.799 147.641 104.78C145.463 102.67 145.458 99.2436 145.463 99.2134C145.432 99.3893 143.062 102.604 145.813 106.119C146.967 107.595 148.645 108.507 150.811 108.865C151.321 111.439 153.297 115.072 157.962 115.624V125.715H144.848C138.799 122.453 141.363 116.715 141.478 116.467L141.99 115.38L140.834 114.955C134.284 112.603 136.089 106.271 136.174 105.996L136.439 105.074L135.547 104.663C130.142 102.233 130.871 95.6928 130.945 95.4156C129.279 96.7254 128.681 99.3887 129.825 102.004C129.208 102.693 128.376 103.52 127.463 104.434C121.861 103.05 121.688 98.0653 121.688 97.8344L121.676 97.0676L120.939 96.7899C118.754 96.0072 117.252 94.8289 116.511 93.2468C115.682 91.4977 115.975 89.661 116.201 88.7787C116.844 88.922 117.481 89.0191 118.091 89.0677C118.731 89.1338 119.374 89.1684 120.017 89.1713H120.105C120.754 89.1713 121.395 89.1298 122.027 89.0677C125.518 88.7325 129.422 87.2795 133.493 83.3686H160.071ZM143.646 172.498L145.102 165.145C145.18 164.712 145.273 164.205 145.337 163.783C145.761 163.958 146.202 164.088 146.653 164.17C147.198 164.271 147.699 164.322 148.157 164.322C150.378 164.322 151.678 163.189 152.539 162.222L153.656 160.959L152.743 159.576C152.66 159.438 150.637 156.342 149.086 154.224C148.777 153.805 148.479 153.379 148.192 152.944C146.423 150.38 144.21 147.169 139.771 147.169L139.375 147.178C138.642 147.221 138.016 147.362 137.506 147.548C136.112 146.918 134.672 146.59 133.176 146.59C131.338 146.59 129.797 147.081 128.765 147.419C128.469 147.502 128.208 147.594 127.999 147.631L119.704 146.84C119.597 146.819 119.26 146.627 118.848 146.153V146.114L120.643 145.418C120.135 139.625 114.394 136.062 111.195 134.855C111.055 134.275 110.765 133.698 110.265 133.225L108.482 131.587L106.914 133.406L106.141 134.334L94.5238 129.712L102.081 138.904L99.1002 143.279C98.0095 144.403 99.2139 145.531 99.2139 145.531L102.295 147.587L105.487 146.432C105.598 146.432 105.697 146.456 105.805 146.468C105.648 146.939 105.449 148.783 105.316 149.299L99.7717 148.244L93.9471 151.428C90.954 153.559 90.5443 157.084 91.6562 159.496L92.3016 160.865L93.2212 162.797L95.258 161.979C95.2852 161.973 95.3111 161.962 95.3344 161.947C94.599 164.217 94.9004 166.371 96.2048 167.784L97.4423 169.289L99.0884 171.306L100.895 169.424C101.424 168.912 103.153 167.04 103.682 165.439L104.073 164.217L103.193 163.275L103.047 163.105L104.04 161.52L111.276 163.172L112.907 163.534L113.773 162.147L114.242 161.395C114.332 161.235 114.353 161.209 114.688 161.209C114.944 161.209 115.2 161.235 115.476 161.295C118.21 161.793 120.726 162.043 122.962 162.043C125.129 162.043 126.427 161.96 127.971 161.465C127.971 161.465 131.855 165.742 131.988 165.902L129.609 173.017L129.503 173.447C124.997 173.801 122.803 174.759 120.152 177.325C116.3 173.624 113.574 173.233 103.224 173.233C90.8332 173.233 82.436 166.197 82.436 154.956V127.479H157.851L157.866 154.956C157.866 164.067 152.345 170.426 143.646 172.498L143.646 172.498ZM97.3345 157.547L97.7324 158.515C97.4695 159.364 94.4759 160.562 94.4759 160.562L93.8316 159.186C93.1442 157.72 93.2934 155.246 95.3759 153.733L100.227 150.858L105.375 151.923C105.281 153.508 106.256 154.697 106.256 154.697L100.864 153.688L97.6383 155.856C97.0906 156.226 97.0521 156.911 97.3345 157.547ZM142.882 164.861L141.262 173.096C140.224 173.239 139.136 173.311 138.009 173.355L139.714 165.439C140.224 163.089 133.743 162.354 130.542 157.729C128.978 159.442 126.035 159.955 123.075 159.955C120.377 159.955 117.679 159.534 116.037 159.219C115.639 159.152 115.236 159.115 114.832 159.11C113.885 159.11 113.025 159.398 112.426 160.37L111.955 161.145L103.123 159.117L100.926 162.665C100.618 163.24 100.593 163.722 101.094 164.26L101.692 164.896C101.277 166.148 99.4424 168.046 99.4424 168.046L98.1292 166.447C97.0894 165.315 97.2599 163.24 98.3441 161.322L101.847 155.558L109.328 156.61L108.169 154.029C106.605 150.612 108.986 146.271 109.241 143.768C109.154 144.523 108.44 144.693 107.614 144.693C106.857 144.693 106.015 144.553 105.455 144.553C105.235 144.553 105.046 144.576 104.944 144.649L102.918 145.847L101.321 144.47C101.125 144.205 101.065 143.586 101.536 143.121L105.235 139.073L100.862 134.096L106.985 137.093L108.856 134.885C109.371 135.374 109.144 136.658 109.144 136.658C111.053 136.702 116.415 139.589 116.701 146.335C116.715 146.54 116.715 146.77 116.715 146.993C116.715 146.993 116.765 147.076 116.857 147.214C117.235 147.724 118.284 149.024 119.607 149.143L128.071 149.961H128.104C129.03 149.961 130.88 148.899 133.249 148.899C134.541 148.899 135.975 149.219 137.508 150.159C137.508 150.159 138.278 149.565 139.526 149.503C139.62 149.491 139.729 149.491 139.818 149.491C143.612 149.491 145.19 152.836 147.227 155.611C148.757 157.729 150.808 160.867 150.808 160.867C150.05 161.739 149.348 162.228 148.171 162.228C147.804 162.229 147.438 162.193 147.077 162.121C143.007 161.392 142.422 153.235 140.097 152.592C139.977 152.56 139.853 152.543 139.729 152.544C138.98 152.544 138.654 153.193 138.654 153.193C139.715 155.975 139.095 157.098 140.239 159.241C141.091 160.83 142.608 162.138 143.232 162.755C143.232 162.755 143.062 163.959 142.882 164.861ZM135.061 173.745C133.888 173.745 132.807 173.761 131.84 173.796L134.389 166.308C134.787 165.272 132.773 163.939 131.94 162.768C133.195 163.513 136.451 165.142 138.015 165.792C137.858 166.035 135.061 173.745 135.061 173.745ZM97.8745 105.638L98.2316 92.6322L101.263 89.5443L103.168 93.3806L99.4134 105.865L97.8745 105.638ZM99.8747 109.797C100.36 110.818 101.231 111.497 101.845 111.887C101.824 112.845 101.733 114.328 101.482 115.641C101.422 115.935 101.348 116.206 101.266 116.472C101.225 116.643 101.176 116.783 101.141 116.893C100.232 116.893 98.4601 116.783 97.0036 116.25C95.3936 115.652 92.9914 112.684 93.5445 109.409C94.239 108.981 95.8561 108.071 97.3683 108.071C98.5253 108.071 99.3222 108.62 99.8747 109.797ZM134.927 113.104C132.61 114.753 126.634 118.96 124.465 120.421L103.609 116.805C103.656 116.625 103.706 116.445 103.754 116.269C104.025 115.225 104.307 113.8 104.321 112.124L121.852 112.395L122.188 112.067C122.455 111.809 128.008 106.635 130.841 103.659C131.581 104.559 132.467 105.327 133.461 105.933C133.081 107.912 133.242 110.73 134.928 113.104H134.927ZM106.718 83.3686C109.236 85.801 111.703 87.3162 114.048 88.1481C113.744 89.3217 113.342 91.7476 114.471 94.1639C115.395 96.1108 117.068 97.6124 119.485 98.613C119.749 101.022 121.319 104.642 125.648 106.238C124.163 107.691 122.666 109.133 121.157 110.563L103.579 110.291C103.182 110.099 102.5 109.66 102.196 109.045C102.163 108.958 102.106 108.912 102.067 108.828L104.935 109.276C104.997 109.283 105.057 109.283 105.119 109.283C105.674 109.283 106.157 108.912 106.247 108.36C106.269 108.213 106.262 108.064 106.227 107.92C106.191 107.776 106.128 107.641 106.04 107.522C105.952 107.402 105.841 107.302 105.714 107.226C105.587 107.149 105.446 107.099 105.3 107.077L101.771 106.537L105.684 93.3895L101.975 85.801L96.0343 91.9116L95.6684 105.58L91.674 104.963C91.0582 104.845 90.4667 105.284 90.3595 105.892C90.2624 106.493 90.6852 107.063 91.3128 107.172L92.9885 107.419C92.3893 107.749 91.9926 108.015 91.9476 108.049L91.6077 108.28L91.5129 108.687C90.5431 112.524 92.7386 116.162 95.1147 117.794L95.0295 118.279C94.9798 118.566 94.9902 118.861 95.0601 119.144C95.13 119.427 95.2579 119.692 95.4357 119.924C95.7826 120.415 96.3078 120.711 96.9065 120.815C97.0278 120.836 97.1581 120.845 97.2747 120.845C97.776 120.847 98.2633 120.68 98.6581 120.371C99.0529 120.062 99.3323 119.629 99.4513 119.143C100.198 119.226 100.948 119.268 101.699 119.267H102.17L125.232 123.317L125.625 123.065C127.462 121.818 134.469 116.856 136.766 115.209C137.43 115.772 138.166 116.245 138.955 116.613C138.211 119.037 138.166 122.77 141.103 125.715H82.3288V92.7381C82.3288 89.5455 81.3684 86.3345 80.2304 83.3686H106.718ZM103.609 33.5233L119.048 38.5373V61.7538L107.68 56.0216L103.609 33.5233ZM140.96 30.6901C140.96 24.9852 131.08 19.8486 120.177 19.8486H120.116C109.214 19.8486 99.3335 24.9852 99.3335 30.6901L99.5526 32.0922L103.904 56.397L99.5307 58.8649L88.2179 65.2916H88.2587C88.2587 65.2916 85.7139 66.5605 84.5326 67.3445C80.2233 70.2523 79.3079 74.5007 81.8101 76.2533C82.4265 72.7913 85.242 69.1753 90.5117 69.1753C94.3059 69.1753 97.1995 71.0807 99.5307 73.9328C100.148 74.6694 100.717 75.4444 101.236 76.2533C101.89 77.2978 102.55 78.2179 103.199 79.099H74.0547C76.1963 83.2846 78.2338 87.7194 78.2338 92.5392V155.267C78.2338 170.453 90.2411 177.699 103.23 177.699C113.269 177.699 114.619 177.251 120.158 182.618C125.673 177.251 127.025 177.699 137.071 177.699C150.07 177.699 162.061 170.453 162.061 155.267V92.5392C162.061 87.7194 164.093 83.2846 166.247 79.0984H137.092C137.74 78.2179 138.397 77.2978 139.054 76.2533C139.576 75.4499 140.141 74.6753 140.747 73.9328C143.102 71.0688 145.988 69.1753 149.785 69.1753C155.05 69.1753 157.86 72.7913 158.484 76.2533C160.989 74.5007 160.083 70.2523 155.749 67.3445C154.588 66.5605 152.04 65.2916 152.04 65.2916H152.078L140.747 58.8649L136.393 56.397L140.747 32.0922L140.96 30.6901H140.96Z" fill="#E8E8E8"/>
</svg>
