<svg width="108" height="29" viewBox="0 0 108 29" fill="none" xmlns="http://www.w3.org/2000/svg">
<path fill-rule="evenodd" clip-rule="evenodd" d="M0 13.423H3.87546V4.5177L8.94466 13.423H11.1073L16.1765 4.51766V13.423H20.1558V0.557824H14.6367L10.1732 8.56403L5.72666 0.557824H0V13.423ZM30.6736 0.333008C22.525 0.333008 21.608 4.39661 21.608 6.69647V7.21531C21.608 9.48062 22.525 13.6479 30.6736 13.6479H31.4175C39.5319 13.6479 40.4663 9.48057 40.4663 7.21531V6.69661C40.4663 4.39675 39.5148 0.333146 31.4175 0.333146H30.6736V0.333008ZM36.2448 7.05943C36.2448 8.54647 35.3623 10.5178 31.037 10.5178C26.6772 10.5178 25.8294 8.49463 25.8294 7.02487V6.81738C25.8294 5.34753 26.6081 3.44541 31.037 3.44541C35.3971 3.44541 36.2448 5.34753 36.2448 6.81738V7.05948V7.05943ZM41.9184 0.557592V13.423H45.898V4.89813L54.6349 13.423H58.614V0.557824H54.6349V8.65052L46.4167 0.557824H41.9184V0.557592ZM81.519 13.423H85.5504V8.44307L92.2456 0.557917H87.6955L83.6297 5.29588L79.6335 0.557824H74.6333L81.519 8.44307V13.423Z" fill="white"/>
<path fill-rule="evenodd" clip-rule="evenodd" d="M41.9111 15.2428V28.1081H45.925V23.0069H54.9909V20.0673H45.925V18.1652H55.2157V15.2428H41.9111ZM84.1879 28.3329C90.6587 28.3329 91.7312 26.1541 91.7312 24.0272V23.7851C91.7312 21.2259 89.7762 20.05 84.9317 19.9636L82.7691 19.929C80.1397 19.8771 79.7935 19.3756 79.7935 18.8223C79.7935 18.2689 80.0183 17.7156 83.1325 17.7156H83.4092C86.783 17.7156 87.0425 18.7704 87.1292 19.2546H91.3159V19.0817C91.3159 17.1449 89.9319 15.0181 83.8421 15.0181H82.6481C76.7831 15.0181 75.641 17.0239 75.641 18.9433V19.0989C75.641 21.1048 77.1117 22.7303 81.9214 22.8686L84.1359 22.9205C87.1116 23.0069 87.5097 23.4739 87.5097 24.2176C87.5097 24.9093 87.1292 25.5837 83.7383 25.5837H83.4958C80.174 25.5837 79.7244 24.3214 79.6725 23.5433H75.4681V23.7335C75.4681 25.4281 76.2468 28.3331 82.9944 28.3331H84.1879V28.3329ZM97.7511 28.1081H101.817V18.2862H107.37V15.2427H92.2151V18.2862H97.7511V28.1081Z" fill="white"/>
<path d="M58.6566 15.2437H54.8096V18.1621H58.6566V15.2437Z" fill="white"/>
<path d="M58.6569 20.0615H54.5781V23.0263H58.6569V20.0615Z" fill="white"/>
<path d="M74.1375 0.558594H60.5571V3.47708H74.1375V0.558594Z" fill="#FCC344"/>
<path d="M74.1375 5.46924H60.5571V8.38773H74.1375V5.46924Z" fill="#FCC344"/>
<path d="M74.1375 10.3794H60.5571V13.2979H74.1375V10.3794Z" fill="#FCC344"/>
<path d="M74.1375 15.3364H60.5571V18.2549H74.1375V15.3364Z" fill="#FCC344"/>
<path d="M74.1375 20.2466H60.5571V23.1651H74.1375V20.2466Z" fill="#FCC344"/>
<path d="M74.1375 25.1572H60.5571V28.0757H74.1375V25.1572Z" fill="#FCC344"/>
</svg>
