<svg width="30" height="19" viewBox="0 0 30 19" fill="none" xmlns="http://www.w3.org/2000/svg">
<path d="M29.5086 16.4683C28.3106 14.3123 25.2246 11.7216 23.9506 10.5943C23.6019 10.2856 23.5646 9.75164 23.8819 9.41031C26.3133 6.79764 28.2579 3.79564 28.9273 1.98164C29.2226 1.1803 28.6113 0.333637 27.7499 0.333637H25.2479C24.4233 0.333637 23.9406 0.629637 23.7106 1.10097C21.6899 5.24164 19.9566 7.03364 18.7433 8.08097C18.0639 8.66764 17.0046 8.18164 17.0046 7.28897C17.0046 5.56897 17.0046 3.34564 17.0046 1.76897C17.0046 1.0043 16.3793 0.385637 15.6079 0.385637L11.0373 0.333637C10.4619 0.333637 10.1333 0.98497 10.4786 1.44164L11.2333 2.52497C11.5173 2.9003 11.6706 3.35697 11.6706 3.82564L11.6666 8.70431C11.6666 9.55297 10.6379 9.96764 10.0273 9.37297C7.96126 7.36097 6.16859 3.2523 5.52326 1.28764C5.33659 0.71897 4.80393 0.33497 4.19993 0.333637L1.73526 0.327637C0.810592 0.327637 0.134592 1.2043 0.385925 2.08697C2.63793 9.99164 7.25859 17.5116 15.4933 18.327C16.3046 18.407 17.0046 17.7536 17.0046 16.945V14.381C17.0046 13.6456 17.5813 13.0136 18.3226 12.995C18.3486 12.9943 18.3746 12.9943 18.4006 12.9943C20.5786 12.9943 23.0179 16.1643 23.8713 17.647C24.1166 18.0736 24.5753 18.3336 25.0713 18.3336H28.3866C29.3539 18.3336 29.9746 17.3076 29.5086 16.4683Z" fill="white"/>
</svg>
