<svg width="30" height="22" viewBox="0 0 30 22" fill="none" xmlns="http://www.w3.org/2000/svg">
<path d="M14.9049 0.666504C10.6697 0.666504 6.73481 0.968253 4.4895 1.43734C4.48472 1.4386 4.47994 1.43991 4.47518 1.44124C2.78357 1.8203 1.19071 3.03199 0.855387 4.92952C0.854943 4.93213 0.854509 4.93473 0.854085 4.93734C0.596476 6.46668 0.333252 8.4603 0.333252 11.3332C0.333252 14.2006 0.597379 16.1414 0.923096 17.7511C1.26664 19.5927 2.82273 20.841 4.54028 21.2251C4.5485 21.2274 4.55675 21.2295 4.56502 21.2316C6.90839 21.6934 10.7322 21.9998 14.9674 21.9998C19.2025 21.9998 23.0284 21.6934 25.3723 21.2316C25.3806 21.2295 25.3888 21.2274 25.3971 21.2251C27.0887 20.846 28.6815 19.6343 29.0168 17.7368C29.0177 17.732 29.0186 17.7273 29.0195 17.7225C29.2731 16.1619 29.6018 14.1702 29.6666 11.2928C29.6667 11.2854 29.6667 11.278 29.6666 11.2707C29.6666 8.39163 29.3371 6.38562 29.0155 4.79671C28.6747 2.95122 27.1168 1.69949 25.3971 1.31494C25.3708 1.3091 25.3443 1.30432 25.3176 1.30062C23.0309 0.979137 19.1407 0.666504 14.9049 0.666504ZM12.4374 6.33447C12.6844 6.32937 12.9396 6.38777 13.1796 6.52327L18.9153 9.76416C19.8826 10.3108 19.8826 11.6901 18.9153 12.2368L13.1796 15.4777C12.2203 16.019 11.0247 15.3334 11.0247 14.2407V7.75895C11.0247 6.93945 11.6966 6.34978 12.4374 6.33447Z" fill="white"/>
</svg>
